if (_typeface_js && _typeface_js.loadFace) _typeface_js.loadFace({"glyphs":{"S":{"x_min":4,"x_max":525.140625,"ha":565,"o":"m 4 532 q 91 691 4 642 q 309 740 179 740 q 418 721 349 740 q 525 681 486 703 q 500 620 509 652 q 478 570 490 589 q 396 669 444 632 q 261 707 348 707 q 156 691 203 707 q 83 645 110 676 q 57 570 57 615 q 111 470 57 498 q 281 417 165 443 q 457 351 397 392 q 517 218 517 311 q 476 104 517 153 q 372 29 436 55 q 241 3 309 3 q 150 15 212 3 q 49 49 89 28 q 66 94 55 63 q 87 161 78 125 q 167 72 117 103 q 275 38 217 41 q 364 57 320 38 q 435 111 408 76 q 463 188 463 146 q 408 285 463 259 q 238 336 354 312 q 63 401 122 361 q 4 532 4 440 l 4 532 "},"a":{"x_min":20,"x_max":632.203125,"ha":620,"o":"m 20 315 q 43 429 20 375 q 110 514 67 482 q 208 546 153 546 l 289 546 l 443 546 l 443 234 l 443 202 q 537 57 443 57 q 557 63 546 57 q 579 77 568 70 q 602 90 591 85 q 632 97 614 95 q 568 38 598 57 q 497 19 539 19 q 444 31 470 19 q 399 58 418 43 q 381 73 380 73 q 317 29 346 39 q 254 19 289 19 q 140 36 186 19 q 68 89 95 53 q 31 181 42 125 q 20 315 20 236 l 20 315 m 275 521 q 189 487 226 521 q 132 400 151 453 q 113 295 113 348 q 166 109 113 157 q 254 57 219 61 q 316 73 282 58 q 351 113 351 89 q 350 132 351 120 q 350 151 350 145 q 356 293 350 196 q 362 444 362 390 q 342 504 362 488 q 275 521 322 521 l 275 521 "},"T":{"x_min":15.171875,"x_max":757.40625,"ha":790,"o":"m 15 738 l 757 738 q 719 684 741 714 q 681 626 698 655 q 610 680 625 670 q 572 694 595 690 q 525 707 550 698 l 438 707 l 438 4 l 358 4 l 358 688 q 359 691 358 689 q 360 694 360 693 q 295 707 360 707 q 198 690 238 707 q 99 626 158 673 q 60 677 87 643 q 15 738 33 711 l 15 738 "},"N":{"x_min":-23.09375,"x_max":684.90625,"ha":757,"o":"m 639 585 q 615 684 639 643 q 552 764 591 725 l 684 764 l 671 690 l 671 93 l 684 24 l 659 24 l 122 660 l 122 204 q 126 129 122 159 q 138 80 131 100 q 155 45 146 61 q 178 7 165 30 l 60 7 q 81 107 81 68 l 81 687 q 68 708 81 700 q 24 731 56 716 q -23 757 -8 746 l 148 757 l 639 151 l 639 585 l 639 585 "},"K":{"x_min":-62.453125,"x_max":717.8125,"ha":730,"o":"m -62 999 l 139 996 l 139 921 q 137 747 139 840 q 136 636 136 654 q 141 569 136 586 q 163 553 147 553 q 308 580 259 553 q 374 644 357 607 q 412 753 391 680 q 509 744 460 744 q 451 645 481 681 q 371 584 421 610 q 233 530 321 558 q 354 453 300 514 q 477 283 408 392 q 590 125 547 175 q 685 76 634 76 q 701 78 691 76 q 717 80 711 80 q 685 63 700 75 q 650 30 670 51 q 618 0 629 9 q 595 -10 606 -10 q 584 -6 591 -10 q 469 111 509 44 q 382 288 429 178 q 292 452 334 397 q 174 522 249 506 l 139 522 q 137 191 137 441 q 139 1 137 34 l 43 1 l 43 894 q -62 999 43 989 l -62 999 "},"d":{"x_min":15,"x_max":485.640625,"ha":547,"o":"m 484 865 q 476 415 479 639 q 473 85 474 190 q 480 44 475 70 q 485 9 484 18 l 398 9 l 385 35 q 256 1 338 1 q 151 35 207 1 q 54 138 94 69 q 15 305 15 207 q 47 444 15 386 q 134 531 79 502 q 256 561 188 561 q 317 552 286 561 q 372 531 347 543 q 403 517 397 520 q 386 654 403 588 q 315 752 368 721 q 347 768 325 758 q 400 798 370 777 q 484 865 431 818 l 484 865 m 245 526 q 176 496 208 526 q 124 417 143 466 q 105 312 105 367 q 133 164 106 225 q 200 73 161 103 q 270 44 238 44 q 360 82 317 44 q 402 170 402 120 l 402 496 q 374 482 386 490 q 351 466 362 475 q 334 453 341 458 q 325 476 330 464 q 313 499 321 488 q 288 518 305 510 q 245 526 271 526 l 245 526 "},"Y":{"x_min":-6.046875,"x_max":691.640625,"ha":730,"o":"m 334 32 q 432 61 398 32 q 478 142 466 91 q 490 265 490 192 q 488 358 490 294 q 486 452 486 421 q 519 653 486 577 q 652 747 553 728 l 691 747 q 631 646 662 646 q 624 646 629 646 q 618 647 620 647 q 575 553 593 647 q 562 423 565 508 q 558 263 560 338 q 550 111 557 187 q 529 -26 544 35 q 225 -263 466 -263 q 181 -254 212 -263 q 136 -238 150 -245 q 195 -246 167 -246 q 332 -209 268 -246 q 436 -110 397 -172 q 474 19 474 -49 q 473 48 474 39 q 397 8 417 16 q 352 1 377 1 l 319 1 q 146 51 215 1 q 46 182 77 102 q 16 351 16 262 q 33 494 16 393 q 62 654 50 596 q 37 694 62 674 q -6 727 12 714 q 72 732 17 732 l 163 732 l 163 693 q 118 516 143 638 q 93 336 93 395 q 103 251 93 301 q 140 150 114 200 q 214 66 166 100 q 334 32 263 32 l 334 32 "},"E":{"x_min":15,"x_max":716.09375,"ha":747,"o":"m 15 370 q 79 593 15 510 q 244 709 143 676 q 463 743 345 743 q 557 739 520 743 q 622 732 594 736 q 659 728 650 728 q 696 743 676 728 l 696 470 q 671 483 697 470 q 613 507 645 496 q 556 518 582 518 l 135 518 q 101 363 101 469 q 139 218 101 292 q 253 95 177 144 q 432 46 329 46 q 599 94 529 46 q 696 193 669 142 q 716 169 716 177 q 714 162 716 166 q 712 154 712 157 q 670 95 712 130 q 558 33 628 59 q 409 8 488 8 q 260 34 332 8 q 133 110 188 61 q 46 226 77 159 q 15 370 15 292 l 15 370 m 432 712 q 142 538 215 712 q 279 536 144 538 q 425 535 415 535 q 539 540 495 535 q 611 557 582 545 q 681 592 640 568 q 577 680 640 656 q 432 712 515 705 l 432 712 "},"j":{"x_min":-19.8125,"x_max":166,"ha":257,"o":"m -19 569 q 121 593 50 593 q 150 591 139 593 q 164 590 160 590 q 164 362 164 401 q 165 234 164 322 q 166 102 166 146 q 164 41 166 59 q 156 -77 160 -22 q 144 -174 152 -133 q 117 -245 136 -216 q 64 -283 98 -275 q 76 -165 70 -266 q 87 -1 83 -64 l 87 375 q 66 472 87 425 q -19 569 46 518 l -19 569 "},"y":{"x_min":10,"x_max":545.546875,"ha":590,"o":"m 10 304 q 57 448 10 388 q 178 538 105 508 q 326 568 251 568 q 397 560 363 568 q 471 538 431 552 q 513 523 511 523 q 485 513 504 518 q 445 499 467 508 q 381 462 423 489 q 359 493 371 476 q 338 516 347 510 q 317 526 330 523 q 280 529 304 529 q 195 504 236 529 q 126 431 153 479 q 100 319 100 384 q 124 203 100 264 q 183 97 148 142 q 249 41 219 51 q 243 108 243 83 q 279 245 243 187 q 409 304 316 304 q 488 283 451 304 q 545 227 526 263 q 513 221 529 223 q 485 213 496 218 q 453 191 474 208 q 421 231 433 219 q 386 243 409 243 q 340 226 367 243 q 294 176 314 209 q 274 101 274 144 q 290 33 274 62 q 342 -38 307 4 q 396 -118 378 -82 q 415 -201 415 -154 q 397 -262 415 -226 q 338 -325 379 -298 q 234 -353 298 -353 q 156 -323 190 -353 q 123 -254 123 -294 q 141 -209 123 -226 q 187 -185 159 -191 q 174 -211 186 -189 q 162 -242 162 -233 q 188 -289 162 -267 q 243 -312 215 -312 q 320 -281 277 -312 q 364 -192 364 -251 q 326 -95 364 -131 q 195 5 288 -60 q 56 135 103 70 q 10 304 10 201 l 10 304 "},"Z":{"x_min":-29,"x_max":875,"ha":896,"o":"m -3 659 q 35 690 10 675 q 83 720 61 705 q 154 780 105 735 q 253 707 198 726 q 381 689 308 689 q 441 690 400 689 q 504 691 483 691 q 630 676 579 691 l 201 134 q 337 162 298 155 q 448 169 375 169 q 530 161 498 169 q 643 131 562 153 q 754 110 724 110 q 814 123 775 110 q 875 141 853 136 q 783 53 825 95 q 731 4 741 12 q 709 -3 721 -3 q 621 35 683 -3 q 506 96 560 73 q 369 119 452 119 q 237 105 282 119 q 178 71 193 91 q 155 15 163 51 q 140 -32 146 -19 q 96 -36 114 -32 q 32 -55 78 -40 q -29 -75 -13 -70 l 518 650 q 309 676 415 676 q 160 668 259 676 q -3 659 62 660 l -3 659 "},"u":{"x_min":14,"x_max":529.046875,"ha":586,"o":"m 361 582 l 529 582 l 509 523 q 507 386 507 516 l 507 244 l 507 100 l 507 23 l 427 23 l 427 100 q 361 61 401 87 q 292 22 322 34 q 219 10 263 10 q 96 40 143 10 q 32 118 50 70 q 14 222 14 166 q 27 317 14 274 q 60 401 41 360 q 80 450 80 442 q 82 460 80 448 q 84 484 84 472 q 48 586 84 539 l 207 586 q 161 477 198 561 q 105 339 124 393 q 87 252 87 285 q 115 162 87 202 q 187 98 143 121 q 271 75 230 75 q 340 94 293 78 q 427 148 386 110 l 427 429 q 422 482 427 465 q 391 539 417 500 q 361 582 364 577 l 361 582 "},"k":{"x_min":-15.3125,"x_max":508.609375,"ha":553,"o":"m -15 802 q 185 875 46 808 l 185 809 l 154 465 l 154 414 l 192 414 q 340 538 340 414 q 339 559 340 547 q 338 575 338 572 q 417 568 357 568 q 508 565 477 567 q 451 491 484 523 q 386 440 418 460 q 326 408 353 420 q 281 389 298 396 q 390 307 352 371 q 440 170 428 243 q 453 35 453 97 q 452 15 453 23 q 451 4 451 7 l 341 4 q 350 90 350 37 q 341 191 350 140 q 311 288 332 242 q 258 361 291 333 q 180 389 225 389 q 149 386 160 389 l 155 4 l 62 4 q 74 134 69 45 q 80 326 78 223 q 82 532 82 428 q 81 637 82 592 q 80 699 80 682 q 66 730 80 714 q 25 767 52 745 q -15 802 -2 789 l -15 802 "},"g":{"x_min":24.390625,"x_max":550,"ha":590,"o":"m 24 529 q 87 567 76 560 q 113 588 99 575 q 163 632 127 602 q 242 565 197 582 q 348 549 288 549 q 397 550 365 549 q 441 551 428 551 q 518 536 494 551 q 427 502 497 523 q 306 452 357 480 q 218 367 254 424 q 182 214 182 310 q 230 83 182 130 q 373 -6 279 35 q 509 -76 468 -48 q 550 -157 550 -103 q 502 -240 544 -190 q 342 -290 459 -290 q 120 -161 185 -290 q 186 -112 160 -138 q 230 -69 212 -86 q 277 -41 248 -52 q 251 -68 262 -56 q 232 -98 239 -79 q 225 -150 225 -116 q 268 -236 225 -204 q 348 -269 311 -269 q 424 -235 389 -269 q 460 -145 460 -201 q 420 -64 460 -87 q 280 -6 380 -42 q 130 79 180 29 q 80 227 80 128 q 118 354 80 303 q 207 433 157 405 q 327 489 257 461 q 411 529 396 517 l 24 529 l 24 529 "},"t":{"x_min":-31.84375,"x_max":608.15625,"ha":653,"o":"m -25 570 q 33 604 16 594 q 65 629 49 615 q 112 666 82 643 q 179 620 123 643 q 302 597 234 597 l 570 597 l 570 568 l 392 568 q 303 537 363 568 q 195 443 243 506 q 147 286 147 380 q 181 186 147 243 q 280 88 215 129 q 430 48 345 48 q 500 54 473 48 q 562 77 527 61 q 608 96 596 93 q 522 16 573 37 q 378 -4 470 -4 q 209 31 282 -4 q 96 133 136 67 q 57 286 57 200 q 83 393 57 346 q 144 473 109 440 q 220 532 179 505 q 265 564 260 558 l -31 564 l -25 570 l -25 570 "},"e":{"x_min":35,"x_max":495.734375,"ha":547,"o":"m 35 296 q 46 374 35 330 q 82 462 57 419 q 154 535 108 506 q 267 565 201 565 q 402 529 342 565 q 481 406 462 494 l 118 406 l 118 317 q 149 221 129 271 q 219 123 168 171 q 351 76 269 76 q 410 83 391 76 q 452 111 429 91 q 495 145 476 132 q 411 50 459 81 q 288 20 363 20 q 159 59 217 20 q 67 163 100 99 q 35 296 35 227 l 35 296 m 262 536 q 166 502 205 536 q 119 430 127 469 l 366 431 q 342 495 364 457 q 262 536 321 534 l 262 536 "},"J":{"x_min":-8.09375,"x_max":179,"ha":243,"o":"m -8 724 l 179 724 l 179 166 q 163 58 179 141 q 110 -103 147 -24 q 12 -204 73 -183 q 77 -48 59 -146 q 96 233 96 48 l 96 625 q 68 680 91 646 q -8 724 45 714 l -8 724 "},"W":{"x_min":8,"x_max":1012.3125,"ha":1099,"o":"m 844 745 q 953 751 873 751 q 1002 749 991 751 q 994 404 994 569 q 996 251 994 321 q 1003 128 999 181 q 1012 18 1007 75 l 925 18 l 925 75 q 863 46 899 68 q 797 13 826 24 q 715 3 768 3 q 547 75 619 3 q 438 10 498 26 q 337 -5 379 -5 q 161 35 236 -5 q 47 150 87 76 q 8 315 8 223 q 22 428 8 370 q 56 536 37 487 q 94 623 76 586 q 112 660 112 660 q 64 733 112 673 l 224 733 q 149 598 180 671 q 102 464 118 525 q 87 380 87 403 q 149 144 87 238 q 377 34 212 51 q 468 59 422 34 q 515 107 515 85 q 465 190 495 125 q 435 380 435 255 q 462 546 435 438 q 490 661 490 654 q 476 696 490 670 q 435 750 462 722 l 603 750 q 574 678 600 739 q 532 550 548 617 q 517 387 517 482 q 540 223 517 302 q 619 93 564 144 q 764 42 675 42 q 873 79 836 50 q 922 149 910 108 q 933 249 933 190 q 932 286 933 261 q 932 323 932 311 q 932 420 932 352 q 933 516 933 488 q 932 580 933 567 q 917 649 929 620 q 888 699 905 678 q 844 745 871 720 l 844 745 "},"v":{"x_min":-29,"x_max":554,"ha":604,"o":"m 404 587 l 554 587 q 473 426 525 546 q 372 178 420 305 q 315 19 323 51 l 237 19 q 212 104 235 41 q 154 246 189 168 q 69 419 120 325 q -29 587 19 514 l 132 587 q 127 574 127 582 q 131 548 127 570 q 134 509 134 526 q 175 394 147 471 q 239 234 204 317 q 291 136 274 151 q 341 248 310 168 q 397 401 373 328 q 420 492 420 474 q 404 587 420 549 l 404 587 "},"s":{"x_min":4.078125,"x_max":492,"ha":553,"o":"m 39 458 q 73 530 39 497 q 160 581 107 563 q 267 600 214 600 q 370 571 321 600 q 449 502 419 543 q 479 426 479 460 q 426 393 479 421 q 347 347 374 365 q 370 396 369 393 q 375 431 371 399 q 340 517 375 488 q 258 547 305 547 q 174 517 216 547 q 132 445 132 487 q 176 354 132 379 q 312 313 221 329 q 447 275 403 297 q 492 191 492 252 q 425 65 492 112 q 265 19 358 19 q 152 40 198 19 q 79 91 106 61 q 34 156 52 122 q 4 219 17 191 q 69 235 26 223 q 151 266 113 247 q 139 240 146 254 q 126 209 132 225 q 120 184 120 193 q 142 118 120 146 q 198 75 164 90 q 265 61 232 61 q 356 94 317 61 q 396 177 396 127 q 354 247 396 226 q 222 294 313 268 q 85 355 131 321 q 39 458 39 389 l 39 458 "},"B":{"x_min":-13.421875,"x_max":568,"ha":610,"o":"m -13 758 q 81 751 57 758 q 134 708 106 744 q 212 750 177 737 q 305 763 246 763 q 396 737 367 756 q 426 675 426 719 q 404 608 426 634 q 339 554 382 581 q 292 526 295 528 q 483 457 399 510 q 568 276 568 403 q 522 133 568 188 q 412 48 477 77 q 286 11 346 20 q 185 3 227 3 l 70 3 l 70 658 q 58 701 70 686 q 22 731 47 716 q -13 758 -1 747 l -13 758 m 263 738 q 191 716 222 738 q 160 687 160 695 q 158 654 160 690 q 157 590 157 618 q 160 531 157 561 q 292 568 241 543 q 343 650 343 593 q 319 711 343 685 q 263 738 296 738 l 263 738 m 209 517 q 169 496 179 517 q 158 435 158 475 q 159 402 158 425 q 160 368 160 379 l 160 36 q 243 40 222 36 q 361 76 313 53 q 439 145 410 99 q 468 268 468 191 q 447 357 468 313 q 390 438 426 402 q 306 495 353 474 q 209 517 260 517 l 209 517 "},"H":{"x_min":-58.046875,"x_max":691,"ha":743,"o":"m -58 969 q 15 982 -38 982 q 108 975 57 982 q 151 969 158 969 q 142 917 147 962 q 136 759 136 872 q 137 653 136 693 q 248 715 178 687 q 383 744 318 744 q 556 694 487 744 q 658 561 625 644 q 691 378 691 479 q 666 215 691 310 q 589 41 642 120 q 451 -60 535 -38 q 529 27 494 -20 q 588 163 563 75 q 614 378 614 251 q 544 622 614 543 q 351 702 475 702 q 222 675 268 702 q 159 600 176 648 q 142 477 142 551 l 142 159 q 146 82 142 148 q 157 -3 151 17 l 51 -3 q 64 220 64 32 q 63 325 64 268 q 63 380 63 381 l 63 462 l 63 762 q 44 893 63 848 q 0 951 25 938 q -58 969 -23 965 l -58 969 "},"c":{"x_min":21,"x_max":479.59375,"ha":547,"o":"m 21 294 q 51 421 21 355 q 144 530 82 486 q 294 574 206 574 q 465 481 400 574 q 362 434 439 460 q 332 515 362 497 q 260 533 302 533 q 178 505 212 533 q 126 434 143 478 q 110 341 110 390 q 141 209 110 272 q 220 110 172 147 q 318 73 269 73 q 423 104 380 73 q 479 164 467 136 q 406 62 460 97 q 280 28 352 28 q 152 64 212 28 q 56 162 92 101 q 21 294 21 224 l 21 294 "},"q":{"x_min":-3,"x_max":556.65625,"ha":600,"o":"m -3 315 q 23 417 -3 360 q 110 517 49 474 q 269 561 171 561 q 556 554 269 561 q 500 486 522 520 q 479 441 479 453 l 479 326 q 481 132 479 200 q 487 9 483 65 q 491 -63 491 -46 q 486 -113 491 -85 q 449 -183 481 -154 q 375 -226 417 -211 q 293 -248 333 -242 q 233 -254 263 -252 q 187 -257 203 -256 l 194 -251 q 240 -219 223 -236 q 265 -189 257 -203 q 286 -149 273 -176 q 306 -171 291 -154 q 328 -191 320 -187 q 351 -196 336 -196 q 389 -174 365 -196 q 414 -120 414 -152 l 414 57 l 405 63 q 275 19 327 19 q 261 20 266 19 q 255 21 257 21 q 118 62 177 21 q 28 171 59 103 q -3 315 -3 239 l -3 315 m 276 528 q 143 473 195 528 q 92 315 92 419 q 119 172 92 230 q 188 85 146 113 q 269 57 229 57 q 345 79 312 57 q 396 141 378 102 q 414 226 414 180 q 388 443 414 358 q 276 528 362 528 l 276 528 "},"b":{"x_min":10,"x_max":522,"ha":586,"o":"m 141 792 q 245 819 211 800 q 325 881 279 837 q 343 821 340 836 q 346 767 346 807 q 317 654 346 698 q 227 547 288 610 q 134 428 165 484 q 103 284 103 371 q 146 115 103 188 q 279 43 190 43 q 366 70 327 43 q 428 153 405 98 q 451 284 451 209 q 425 405 451 348 q 352 497 400 462 q 240 533 304 533 q 346 569 296 569 q 439 533 399 569 q 500 439 479 497 q 522 321 522 382 q 502 203 522 260 q 447 99 482 145 q 362 26 411 53 q 259 0 314 0 q 159 27 206 0 q 79 100 113 54 q 28 199 46 146 q 10 300 10 252 q 42 430 10 379 q 141 533 74 481 q 230 607 208 586 q 253 671 253 629 q 222 754 253 723 q 141 792 191 785 l 141 792 "},"D":{"x_min":8,"x_max":781,"ha":829,"o":"m 31 751 q 74 772 61 765 q 102 800 88 779 q 141 851 117 821 q 294 774 190 797 q 520 724 399 752 q 711 621 642 696 q 781 384 781 546 q 726 195 781 281 q 578 61 672 110 q 375 13 485 13 q 195 58 280 13 q 59 182 110 103 q 8 355 8 261 q 49 528 8 458 q 145 636 90 597 q 250 691 201 674 q 312 712 299 707 l 390 712 q 290 670 366 702 q 153 565 214 638 q 93 369 93 492 q 132 193 93 268 q 242 78 171 118 q 407 38 314 38 q 532 71 477 38 q 623 152 588 104 q 677 251 659 200 q 696 332 696 301 l 696 401 q 638 590 696 512 q 485 708 581 668 q 273 751 389 748 l 31 751 l 31 751 "},"I":{"x_min":8.5625,"x_max":179,"ha":242,"o":"m 8 729 l 179 729 l 179 21 l 93 21 l 93 612 q 88 663 93 647 q 67 692 84 678 q 8 729 50 706 l 8 729 "},"G":{"x_min":15,"x_max":662,"ha":700,"o":"m 15 400 q 48 537 15 475 q 135 644 81 600 q 252 714 189 689 q 373 743 315 739 q 410 744 384 744 q 501 741 438 744 q 591 739 564 739 q 650 743 630 739 l 650 614 q 580 682 616 659 q 505 711 544 704 q 412 719 465 719 q 235 669 303 719 q 138 539 167 620 q 110 361 110 458 q 127 249 110 307 q 179 142 144 191 q 272 62 215 92 q 402 32 328 32 q 508 52 452 32 q 656 145 565 73 q 662 69 662 106 q 660 27 662 52 q 659 -6 659 3 q 626 -170 659 -110 q 504 -253 592 -230 q 538 -219 513 -247 q 597 -125 562 -190 l 597 51 q 536 31 575 49 q 463 4 497 14 q 373 -6 428 -6 q 247 21 329 -6 q 89 139 164 49 q 15 400 15 230 l 15 400 "},"z":{"x_min":-166,"x_max":672,"ha":720,"o":"m 9 519 q 65 568 21 535 q 131 627 109 601 q 196 572 158 587 q 285 557 233 557 q 364 561 311 557 q 449 566 418 566 q 509 561 483 566 l 189 89 q 248 112 205 98 q 352 126 291 126 q 411 119 380 126 q 469 103 441 112 q 529 85 497 94 q 580 75 562 75 q 634 87 596 75 q 672 99 671 99 q 590 14 624 52 q 549 -26 555 -22 q 528 -31 543 -31 q 470 0 507 -31 q 396 50 432 32 q 295 69 360 69 q 203 53 234 62 q 160 30 173 43 q 126 -17 146 16 q 85 -78 105 -52 q -11 -266 -11 -195 q -4 -297 -11 -287 q -166 -328 -72 -297 q -19 -122 -115 -258 q 149 131 75 13 q 285 338 206 221 q 405 513 364 455 q 274 511 304 511 q 198 512 240 511 q 109 515 155 513 q 9 519 63 517 l 9 519 "},"U":{"x_min":8,"x_max":669,"ha":729,"o":"m 492 737 q 568 742 519 742 l 669 742 l 669 9 l 573 9 q 575 67 573 44 q 577 92 577 89 q 451 16 511 40 q 319 -7 391 -7 q 226 4 260 -7 q 153 43 202 12 q 56 146 104 74 q 8 327 8 218 q 25 447 8 390 q 66 545 43 504 q 112 618 89 585 q 135 653 135 650 q 116 688 135 662 q 80 726 97 714 l 238 726 q 177 610 206 669 q 126 477 149 552 q 104 327 104 401 q 123 205 104 275 q 199 80 143 135 q 351 25 254 25 q 525 89 469 31 q 581 231 581 146 l 581 334 l 581 526 q 565 664 581 618 q 492 737 548 710 l 492 737 "},"w":{"x_min":27,"x_max":822.3125,"ha":900,"o":"m 645 578 q 727 579 683 579 q 817 581 773 579 l 822 503 q 811 409 816 481 q 804 293 806 337 l 804 257 q 805 149 804 189 q 811 69 807 110 q 816 16 815 27 l 724 16 q 729 127 729 78 q 666 64 690 88 q 618 30 642 41 q 554 19 595 19 q 503 23 523 19 q 470 37 483 28 q 432 75 458 46 q 402 107 405 104 q 370 81 392 99 q 320 46 349 64 q 259 15 292 27 q 193 4 226 4 q 124 27 164 4 q 55 95 84 50 q 27 206 27 141 q 43 315 27 273 q 87 403 60 358 q 113 468 113 447 q 99 509 113 475 q 57 581 84 544 l 243 581 q 200 502 230 551 q 153 420 171 453 q 120 344 134 387 q 107 253 107 301 q 154 128 107 178 q 272 78 201 78 q 341 101 297 78 q 384 142 384 125 q 372 179 384 155 q 360 238 360 204 q 371 312 360 280 q 403 392 382 344 q 425 459 425 441 q 405 504 425 465 q 375 572 386 542 l 553 572 q 529 530 551 563 q 490 464 508 497 q 457 381 472 430 q 443 274 443 331 q 485 148 443 205 q 584 91 527 91 q 657 115 622 91 q 713 171 691 140 q 734 213 734 202 l 734 402 q 723 457 734 429 q 697 508 712 486 q 667 550 683 531 q 645 578 652 570 l 645 578 "},"F":{"x_min":12.4375,"x_max":467.78125,"ha":514,"o":"m 12 729 l 465 729 q 454 677 461 702 q 445 637 448 653 q 230 708 374 708 q 208 709 221 708 q 191 710 195 710 q 163 692 171 710 q 155 614 155 674 l 155 117 l 412 117 q 439 112 423 117 q 467 108 456 108 q 454 79 461 89 q 429 48 448 70 q 401 9 410 26 q 296 69 337 53 q 194 86 255 86 q 147 63 173 86 l 147 -125 q 127 -177 147 -162 q 65 -208 107 -192 l 65 -162 l 65 463 l 65 501 l 65 682 q 40 704 63 684 q 12 729 17 724 l 12 729 "},"r":{"x_min":-9.421875,"x_max":601.640625,"ha":629,"o":"m -9 571 q 57 563 9 563 q 302 582 135 563 q 435 541 385 582 q 485 445 485 500 q 453 363 485 397 q 378 308 422 329 q 284 270 335 286 q 230 252 233 254 q 279 226 246 239 q 326 206 312 213 q 352 181 339 200 q 438 85 382 136 q 525 34 494 34 q 554 37 543 34 q 601 45 565 41 q 554 8 578 16 q 485 1 529 1 q 383 31 428 1 q 279 128 337 62 q 202 212 220 194 q 158 231 184 231 q 155 198 157 221 q 154 144 154 175 q 166 7 154 65 l 51 7 q 60 96 53 36 q 70 197 67 156 q 74 283 74 237 q -9 571 74 468 l -9 571 m 280 532 q 234 535 263 535 q 155 510 177 535 q 133 440 133 486 q 141 351 133 412 q 151 260 149 289 q 328 356 265 306 q 392 452 392 407 q 362 508 388 491 q 280 532 336 525 l 280 532 "},"x":{"x_min":-246,"x_max":727,"ha":796,"o":"m 550 612 q 465 588 510 612 q 382 534 421 565 q 318 476 344 502 q 285 443 292 449 q 245 496 283 445 q 166 576 206 547 q 74 606 126 606 q -24 549 10 606 q 23 553 -1 549 q 126 512 79 553 q 201 421 173 472 q 230 347 230 370 q 175 237 216 316 q 72 60 134 159 q -72 -138 10 -38 q -246 -310 -155 -239 q -71 -240 -146 -301 q 54 -98 4 -179 q 170 109 104 -18 q 270 290 236 238 q 316 223 282 279 q 384 122 350 168 q 467 42 418 77 q 574 8 516 8 q 678 50 637 8 q 727 156 718 93 q 667 175 696 160 q 607 197 637 190 q 623 172 615 184 q 635 149 630 160 q 639 123 639 137 q 616 78 639 95 q 574 61 592 61 q 461 130 521 61 q 363 269 402 200 q 307 373 324 339 q 348 427 307 378 q 434 518 389 477 q 506 560 479 560 q 545 549 530 560 q 566 496 560 538 q 629 528 596 506 q 679 570 662 549 q 614 595 655 583 q 550 612 573 606 l 550 612 "},"V":{"x_min":0,"x_max":663,"ha":704,"o":"m 0 737 q 69 740 25 740 q 193 737 90 740 q 176 713 191 733 q 162 676 162 692 q 244 494 187 617 q 338 294 301 372 q 395 176 375 217 q 451 278 404 183 q 536 477 498 374 q 574 636 574 579 q 567 679 574 661 q 550 712 560 697 q 525 750 540 727 l 663 750 l 663 741 l 379 0 q 294 180 353 46 q 205 376 234 313 q 121 542 176 439 q 0 737 65 645 l 0 737 "}," ":{"x_min":0,"x_max":0,"ha":323},"Q":{"x_min":8,"x_max":743.203125,"ha":763,"o":"m 8 384 q 33 512 8 450 q 106 623 58 574 q 223 701 154 672 q 374 730 292 730 q 447 722 415 730 q 497 705 478 714 q 539 681 516 696 q 574 660 561 667 q 617 711 612 706 q 639 717 623 716 q 690 730 656 718 l 743 730 q 683 674 701 696 q 659 619 665 651 q 653 523 653 587 l 653 -174 q 628 -213 649 -192 q 590 -258 607 -234 q 576 -104 576 -227 l 576 -69 q 568 59 576 21 q 501 28 542 47 q 449 5 461 8 q 417 2 437 2 l 367 2 q 186 51 269 2 q 55 188 103 100 q 8 384 8 275 l 8 384 m 391 691 q 237 643 304 691 q 135 515 170 595 q 100 346 100 436 q 140 183 100 255 q 245 72 181 111 q 375 33 309 33 q 518 75 476 33 q 568 146 560 118 l 568 607 q 487 673 519 656 q 391 691 455 691 l 391 691 "},"h":{"x_min":-9.453125,"x_max":533,"ha":600,"o":"m -9 744 q 78 768 46 755 q 131 792 110 780 q 155 804 151 804 q 164 798 158 804 l 164 491 q 203 513 172 495 q 259 539 235 531 q 315 549 284 547 q 479 475 426 549 q 533 293 533 402 q 522 122 533 211 q 480 19 511 33 l 440 19 l 440 298 q 415 430 440 382 q 357 495 390 478 q 293 513 324 513 q 201 474 238 513 q 163 393 164 436 l 163 19 q 131 13 150 13 q 103 14 123 13 q 69 15 83 15 q 90 165 80 63 q 96 337 96 227 q 92 502 96 423 q 85 609 89 581 q 60 677 79 649 q 19 722 40 705 q -9 744 -2 738 l -9 744 "},"M":{"x_min":-4,"x_max":1268,"ha":1333,"o":"m -4 376 q 28 530 -4 461 q 115 647 60 599 q 241 720 170 695 q 387 746 312 746 q 489 736 447 746 q 559 710 531 726 q 613 669 587 694 q 662 623 640 644 q 701 656 680 639 q 753 693 722 674 q 824 725 784 712 q 913 738 865 738 q 1061 705 978 738 q 1205 594 1143 673 q 1268 385 1268 515 q 1218 191 1268 280 q 1084 51 1169 103 q 896 -1 999 -1 q 793 16 826 -1 q 738 77 760 33 q 821 27 788 38 q 895 16 854 16 q 1044 69 981 16 q 1140 209 1107 123 q 1173 391 1173 295 q 1150 519 1173 459 q 1089 622 1127 578 q 1002 690 1051 665 q 903 715 954 715 q 797 689 849 715 q 713 625 745 663 q 681 552 681 586 q 680 300 680 456 q 680 194 680 231 q 680 126 680 156 q 681 66 681 95 q 681 7 681 36 l 580 7 q 594 141 584 26 q 604 306 604 256 l 604 491 q 583 595 604 541 q 515 686 562 649 q 396 723 469 723 q 240 681 309 723 q 131 565 170 640 q 92 391 92 489 q 129 204 92 286 q 237 76 166 122 q 404 31 308 31 q 481 42 450 31 q 534 92 511 53 q 449 17 510 36 q 334 -1 388 -1 q 252 16 306 -1 q 138 75 197 33 q 37 192 79 117 q -4 376 -4 268 l -4 376 "},"C":{"x_min":11,"x_max":648.359375,"ha":700,"o":"m 11 358 q 46 531 11 459 q 142 648 81 604 q 283 711 203 691 q 455 732 362 732 q 501 730 485 732 l 582 730 l 617 730 l 617 622 q 569 648 613 624 q 484 686 525 673 q 391 700 443 700 q 268 656 338 700 q 147 530 198 613 q 97 334 97 447 q 123 226 97 296 q 217 97 149 156 q 399 39 285 39 q 508 55 455 39 q 609 131 561 72 q 630 121 624 124 q 641 118 636 119 q 648 116 647 117 q 617 81 645 107 q 523 31 589 55 q 352 8 458 8 q 189 49 268 8 q 60 171 110 91 q 11 358 11 251 l 11 358 "},"0":{"x_min":0,"x_max":0,"ha":694},"f":{"x_min":5.296875,"x_max":492.25,"ha":537,"o":"m 5 540 q 20 540 10 540 q 34 539 29 539 q 128 550 93 539 q 198 583 162 561 q 258 615 233 605 q 325 626 282 626 q 387 616 362 626 q 444 586 411 607 q 492 557 477 565 q 443 537 472 546 q 393 515 414 527 q 342 471 373 504 q 349 520 349 501 q 288 588 349 588 q 238 567 266 588 q 187 503 209 546 q 164 402 166 461 q 163 280 163 353 q 163 178 163 248 q 164 57 164 108 q 234 78 193 61 q 286 96 275 95 q 349 81 309 96 q 416 59 390 67 q 489 52 443 52 q 438 23 474 33 q 368 14 402 14 q 297 28 352 14 q 222 42 242 42 q 206 39 213 42 q 194 36 199 36 q 167 42 186 36 l 167 -188 q 147 -218 167 -202 q 87 -262 128 -234 l 86 335 q 79 417 86 385 q 64 467 73 449 q 30 512 54 484 q 5 540 5 540 l 5 540 "},"L":{"x_min":-29,"x_max":481,"ha":510,"o":"m -29 989 q 6 988 -16 989 q 41 987 30 987 q 143 996 101 987 l 142 27 q 169 26 150 27 q 209 26 188 26 q 257 27 243 26 q 380 61 313 33 q 481 107 447 90 q 465 72 471 91 q 450 22 458 53 q 436 -26 443 -8 q 394 -16 420 -23 q 346 -4 369 -8 q 280 -1 322 -1 l 51 -1 q 53 182 53 22 q 52 408 53 265 q 51 656 51 551 q 50 802 50 760 q 50 837 50 818 q 51 871 51 857 q 36 930 51 906 q -29 989 20 955 l -29 989 "},"i":{"x_min":-13,"x_max":179,"ha":253,"o":"m -13 582 q 93 588 28 584 q 179 600 158 592 q 169 532 175 576 q 158 430 163 488 q 153 298 153 373 l 153 269 l 159 4 q 94 12 115 10 q 70 15 74 14 l 71 324 q 62 459 67 414 q 48 523 56 504 q 24 555 40 543 q -13 582 8 567 l -13 582 "},"A":{"x_min":18,"x_max":714,"ha":743,"o":"m 356 738 q 409 634 372 727 q 490 429 446 542 q 590 205 534 316 q 714 8 645 94 q 643 3 678 3 l 601 3 l 397 436 l 389 436 l 37 -1 q 18 125 18 73 q 31 252 20 204 q 71 346 42 300 q 159 460 100 393 q 209 505 185 488 q 267 541 234 522 q 312 569 300 560 q 323 590 323 578 q 273 676 323 634 q 188 738 222 718 l 356 738 l 356 738 m 336 561 q 181 450 234 520 q 110 272 129 381 q 106 216 106 247 q 108 171 106 192 q 110 142 109 151 l 119 142 l 380 467 q 364 494 371 480 q 351 525 358 509 q 336 561 344 541 l 336 561 "},"n":{"x_min":0.25,"x_max":569,"ha":643,"o":"m 0 524 q 120 531 42 526 q 200 536 197 536 q 203 528 203 535 q 196 488 203 519 q 188 438 188 457 q 366 541 277 541 q 569 290 569 541 l 549 7 l 470 7 q 479 269 479 136 l 479 317 q 433 458 479 423 q 339 494 388 494 q 236 446 271 494 q 192 329 202 398 q 183 169 183 260 l 183 13 l 103 13 l 103 373 q 0 524 103 469 l 0 524 "},"O":{"x_min":4,"x_max":789,"ha":843,"o":"m 4 384 q 24 489 4 428 q 90 609 44 550 q 218 707 137 668 q 413 746 299 746 q 561 716 492 746 q 681 634 630 686 q 760 513 732 582 q 789 367 789 444 q 773 278 789 336 q 715 155 758 220 q 592 45 673 90 q 390 0 511 0 q 229 33 319 0 q 72 154 140 67 q 4 384 4 240 l 4 384 m 414 721 q 288 692 347 721 q 185 613 229 663 q 117 499 141 563 q 93 367 93 435 q 122 221 93 285 q 198 112 151 156 q 296 46 245 68 q 390 25 347 25 q 559 76 487 25 q 669 208 632 128 q 707 370 707 288 q 673 539 707 470 q 591 648 640 609 q 494 704 541 687 q 414 721 446 721 l 414 721 "}," ":{"x_min":0,"x_max":0,"ha":323},"X":{"x_min":23,"x_max":773,"ha":819,"o":"m 339 565 q 397 634 347 573 q 489 722 447 694 q 590 749 531 749 q 622 745 608 749 q 647 735 636 741 q 666 726 659 729 q 633 674 641 688 q 620 645 625 659 q 606 614 615 632 q 570 656 585 642 q 535 669 555 669 q 483 650 517 669 q 415 598 449 631 q 363 526 382 565 l 763 10 l 773 8 l 653 8 l 346 465 q 274 363 323 451 q 187 170 226 275 q 149 0 149 66 q 118 0 136 0 q 93 -1 100 -1 q 31 15 60 -1 l 314 505 q 254 570 294 525 q 188 639 214 615 q 131 679 162 664 q 61 695 99 695 q 42 682 54 690 q 23 669 30 675 q 69 709 47 701 q 134 718 91 718 q 201 701 171 718 q 248 666 230 685 q 295 613 266 648 q 339 565 324 578 l 339 565 "},"P":{"x_min":-51.390625,"x_max":736,"ha":771,"o":"m 143 638 q 190 667 144 639 q 291 714 236 696 q 423 732 347 732 q 562 695 488 732 q 685 584 635 659 q 736 397 736 508 q 678 193 736 287 q 531 44 620 99 q 354 -10 441 -10 q 301 -2 329 -10 q 234 19 273 5 q 166 44 195 33 q 159 -49 159 13 q 155 -144 158 -111 q 129 -210 151 -176 q 57 -265 107 -244 q 74 -179 67 -230 q 85 -82 82 -128 q 89 -16 89 -37 l 89 404 q 78 538 89 479 q 37 641 67 597 q -51 701 6 685 q 4 718 -14 718 q 18 714 14 718 q 24 705 23 710 q 26 701 26 701 q 36 709 28 701 q 53 718 43 718 q 143 638 82 718 l 143 638 m 384 686 q 264 670 317 686 q 160 615 211 655 l 160 263 q 164 153 160 193 q 185 85 168 113 q 240 43 203 57 q 345 29 278 29 q 497 76 428 29 q 604 201 565 123 q 643 365 643 279 q 596 546 643 474 q 487 652 549 618 q 384 686 425 686 l 384 686 "},"m":{"x_min":31.03125,"x_max":902,"ha":990,"o":"m 31 560 q 78 562 46 562 l 131 562 q 221 569 185 562 q 219 540 221 557 q 217 516 217 523 q 221 490 217 504 q 275 541 261 530 q 313 561 290 553 q 379 569 337 569 q 440 559 416 569 q 481 533 465 549 q 511 498 497 518 q 543 452 525 478 q 595 524 573 502 q 644 553 617 546 q 726 560 672 560 q 902 337 902 560 l 902 95 l 902 4 l 808 8 q 811 156 808 68 q 815 274 815 244 q 804 404 815 356 q 763 477 793 452 q 679 504 734 501 q 592 471 622 504 q 552 380 562 438 q 542 230 542 323 q 543 121 542 187 q 546 13 545 56 q 532 13 543 13 q 504 14 521 14 q 453 13 474 14 q 456 80 454 35 q 460 165 458 125 q 463 244 463 206 q 452 379 463 322 q 413 469 441 435 q 335 504 385 504 q 252 469 279 502 q 217 372 225 436 q 209 191 209 308 q 209 98 209 149 q 210 12 210 47 l 121 4 q 128 219 128 107 q 127 288 128 254 q 127 320 127 323 q 115 435 127 393 q 88 497 103 478 q 31 560 73 517 l 31 560 "},"l":{"x_min":9,"x_max":440.03125,"ha":457,"o":"m 340 881 q 304 763 332 811 q 218 636 277 715 q 132 493 160 556 q 104 341 104 429 q 132 214 104 284 q 216 95 161 144 q 344 47 270 47 q 393 52 374 52 q 440 58 412 53 q 375 20 407 32 q 292 8 344 8 q 150 48 215 8 q 47 158 85 88 q 9 314 9 228 q 32 433 9 375 q 92 545 55 491 q 154 635 129 599 q 180 690 180 672 q 162 726 180 703 q 120 773 145 748 q 92 802 95 799 q 216 825 137 802 q 340 881 294 847 l 340 881 "},"p":{"x_min":-19.71875,"x_max":621,"ha":690,"o":"m -19 440 q 30 435 7 435 q 109 452 83 435 q 171 508 135 470 q 246 565 206 546 q 361 585 286 585 q 418 572 377 585 q 506 529 459 560 q 587 440 553 498 q 621 297 621 382 q 592 167 621 233 q 504 58 563 102 q 361 15 446 15 q 182 89 260 15 q 203 107 189 95 q 228 130 217 120 q 244 145 239 141 q 284 81 251 98 q 340 62 318 64 q 399 75 359 62 q 478 143 439 89 q 518 302 518 197 q 498 416 518 362 q 438 503 478 470 q 340 536 398 536 q 269 512 310 536 q 198 436 228 489 q 168 302 168 384 l 168 -4 q 173 -108 168 -47 q 179 -191 179 -168 q 162 -263 179 -235 q 101 -314 145 -292 l 101 62 q 94 256 101 189 q 75 352 88 323 q 38 398 62 381 q -19 440 15 415 l -19 440 "},"R":{"x_min":0.390625,"x_max":661.21875,"ha":681,"o":"m 157 673 q 346 743 262 743 q 425 726 387 743 q 487 679 463 710 q 511 608 511 648 q 475 497 511 545 q 392 420 439 449 q 294 370 345 391 q 243 348 243 349 q 337 285 301 319 q 428 186 373 250 q 534 80 484 121 q 661 7 584 39 q 561 3 625 3 l 511 3 l 222 309 l 170 336 l 170 -1 l 95 3 l 95 475 q 84 621 95 574 q 57 686 74 669 q 0 722 40 702 q 68 719 30 720 q 121 711 106 719 q 157 673 136 703 l 157 673 m 314 696 q 249 686 277 696 q 196 659 222 676 q 165 640 169 642 l 165 360 q 357 452 289 402 q 425 576 425 502 q 393 660 425 624 q 314 696 361 696 l 314 696 "},"o":{"x_min":4,"x_max":583,"ha":643,"o":"m 4 277 q 44 424 4 360 q 153 523 84 488 q 304 559 221 559 q 420 534 355 559 q 534 446 485 509 q 583 277 583 383 q 558 158 583 224 q 472 43 534 93 q 304 -7 410 -7 q 190 11 244 -7 q 93 67 136 30 q 27 157 51 103 q 4 277 4 210 l 4 277 m 290 521 q 179 472 221 518 q 120 370 137 426 q 103 277 103 314 q 135 138 103 194 q 211 54 167 81 q 290 28 255 28 q 387 64 342 28 q 460 159 433 100 q 487 277 487 217 q 460 402 487 347 q 389 489 434 457 q 290 521 344 521 l 290 521 "}}}
